<?xml version="1.0" standalone="no"?><svg version="1.0" xmlns="http://www.w3.org/2000/svg" viewBox="0 0 512 512" fill="white"><path d="M52.4 2.7c-1.5 1.6-1.6 4.2-1 32.3.3 16.8.9 53.8 1.2 82.3l.7 51.7-8.1 15.8c-4.4 8.6-10.1 20.6-12.7 26.7-10.7 25-22.3 65.1-26.5 92-1.1 7.1-2.7 15.8-3.5 19.2-1.9 7.9-1.9 12.8.2 19.3 1.9 5.9 8.3 13.6 13.6 16.5 3.4 1.8 3.4 1.9 2.1 5.1-3.6 8.5-.5 17.1 7.2 20.6 7.7 3.3 15.6.3 19.5-7.4 1.2-2.4 2.3-4.5 2.5-4.7.1-.2 4.3 1.4 9.3 3.4l9 3.8-1.4 3.4c-4.8 11.4 4.1 23.7 15.6 21.8 5-.9 10.4-5.4 11.9-10.1.9-2.6 1.7-3.5 2.9-3.1 1.4.3 44.2 17.7 44.9 18.2.1.1-.5 1.8-1.3 3.8-2 4.8-1.9 9.4.3 13.6 5.5 11 20.6 10.6 26.3-.6 1.3-2.6 2.4-4.9 2.5-5 .1-.3 17.7 6.7 18.2 7.1.1.2-.5 2.3-1.4 4.7-3.9 11.1 4 21.9 15.2 20.6 5.6-.6 9.7-3.7 12.3-9.2 1.8-3.9 2.3-4.4 4.3-3.6 3.9 1.5 15.3 6.3 15.6 6.6.2.2-.4 2.5-1.3 5.3-1.3 4-1.4 5.7-.6 9 1.2 4.4 6.5 9.8 10.7 10.8 3.6.9 9.4-.2 12.4-2.4 2.1-1.6 6.2-7.5 7.2-10.4.2-.5 4.3.9 9.1 2.9 7.8 3.2 8.8 3.9 8.2 5.7-1.2 3.9-1.7 10.5-1.1 13 1.7 6.7 9.8 11.5 17 10.2 4.7-.9 10.2-5.7 11.6-10.2.8-2.3 1.7-3.4 2.5-3 2.7 1 17 6.9 17.3 7.1.1.1-.5 1.8-1.3 3.8-4.2 10.2 1.4 20.3 12 21.5 6.1.6 11.6-2.6 14.7-8.7 1.3-2.5 2.3-4.7 2.4-4.8 0-.1 3.4 1.1 7.5 2.7 9 3.6 13.2 3.7 19 .7 8.3-4.4 11.6-15.8 6.8-23.6l-2-3.3 2.4-6.2c9.2-23 5-45.5-11.5-61.9-4-4-8.3-8-9.6-8.8-2.1-1.3-.8-1.4 12.5-1.5 36.3-.3 67.4-13.3 93.4-39.3 19.9-20 31.5-41.6 37.6-70.2 2.4-11.6 2.5-38.1 0-49.9-5.6-26.8-17-48.7-35.1-67.8-19.6-20.5-43.4-33.7-71.6-39.8-11.7-2.5-39-2.6-51.2-.1-17.9 3.6-34.6 10.5-50.3 20.8-10.4 6.8-29.6 26-36.4 36.4-16.3 24.8-24 52.4-22.8 81.5l.6 13.5-3.7-4c-2-2.2-14.7-15.9-28.2-30.4-15-16.2-24.4-27-24.2-28 .2-.9 15-48.8 32.8-106.5C236.4 53.9 251 6.2 251 5.4c0-.7-.7-2-1.6-2.8C248 1.2 237.7 1 151 1c-90.2 0-97 .1-98.6 1.7zM239 11.4c0 1-29.9 96.9-30.4 97.3-.6.6-144.6-38.5-145.8-39.6-.3-.3-.9-13.5-1.3-29.4L60.8 11h89.1c49 0 89.1.2 89.1.4zM135 99.6c37.1 10.1 68.2 18.8 69.1 19.2 1.4.6 1.2 1.9-1.7 11.6-1.9 6-3.6 11.1-3.8 11.3-.2.3-30.8-7.9-67.9-18.1C93.5 113.4 62.9 105 62.6 105c-.3 0-.6-5.7-.6-12.6V79.8l2.8.7c1.5.3 33.1 8.9 70.2 19.1zm-5.3 34.1c44.4 12.1 65.3 18.2 65.3 19.1 0 1.1-12.2 41.7-17.6 58.4l-1.6 4.8h-7.7c-23.2 0-48.8-7-70-19.2-10.5-6-17.3-11.2-27.3-20.7l-7.8-7.4v-26.3c0-14.5.3-26.4.8-26.4.4-.1 30.1 7.9 65.9 17.7zm265 3.9c16.4 2.4 15.4 1.5 15.1 13.6l-.3 10.3-16.8 9.7-16.7 9.7-16.8-9.7-16.7-9.7v-20.9l3-.8c13-3.7 33.2-4.6 49.2-2.2zm-60.9 29.7c.8.9 9.5 6.3 19.3 11.9l17.9 10.3-.2 11.4-.3 11.5-11.5 8.3c-6.3 4.7-15.9 11.6-21.4 15.5l-9.8 7.1-9.2-4.5-9.1-4.6-4.4-21.2c-3.7-17.6-4.8-21.4-6.5-22.5-1.2-.7-6-2.6-10.8-4.1-4.9-1.5-8.8-3.2-8.8-3.7 0-1.8 14.6-16 22.5-21.9 4.4-3.3 13-8.4 19-11.5l11-5.5.5 11c.3 7 1 11.5 1.8 12.5zm101.9-15.8c4.6 2.4 11.5 6.8 15.5 9.8 7.4 5.6 21.8 19.7 21.8 21.4 0 .5-4.5 2.3-9.9 4.1-5.5 1.8-10.4 3.8-10.9 4.5-.6.7-2.9 10-5.1 20.7-2.3 10.7-4.4 20.2-4.6 21-.3.9-4.5 3.6-9.4 6l-8.9 4.3-12.4-8.9c-6.8-4.8-16.5-11.9-21.5-15.7l-9.3-6.8v-22.4l18.1-10.4c9.9-5.7 18.7-11.4 19.5-12.5 1-1.5 1.4-5 1.4-12.3V144l3.8 1.5c2 .9 7.4 3.6 11.9 6zM66.9 186.3c18.5 17.4 44.6 30.8 71.1 36.5l8.5 1.8 1.7 15c3.1 27.1 3.9 28.6 27.8 54.2 9.9 10.5 18 19.5 18 19.9 0 .9-86 42.6-88.7 43.1-1 .1-10.3-3.3-20.8-7.6-15.8-6.5-19-8.2-18.8-9.8.1-1 2-7.1 4.3-13.6 11.2-32.2 8.4-61-8.2-85.7-1.7-2.5-7.1-8.6-12-13.4l-9-8.8 1.3-3.2C47 202.5 58.4 180 59.7 180c.3 0 3.6 2.8 7.2 6.3zM282 195l9.7 3 1.1 5.2c.7 2.9 2.5 11.5 4.1 19l2.9 13.8-10.7 9.7c-5.8 5.3-12.2 11.2-14.2 13.1l-3.6 3.4-10.2-3.3c-7.3-2.3-10.1-3.6-10.1-4.8 0-3.8 3.1-21.2 4.9-27.6 1.1-3.9 3.2-9.9 4.8-13.5 3-7 10.5-21 11.1-21 .3 0 4.8 1.3 10.2 3zm204.2 7.7c8.1 15.7 12.4 30 14.3 46.9l.7 6.1-10.2 3.2-10.1 3.2-9.7-8.7c-5.3-4.8-11.8-10.7-14.4-13.1l-4.7-4.3 3.9-18.2c2.2-10 4-18.6 4-19 0-.7 17-6.5 19.6-6.7.6-.1 3.6 4.7 6.6 10.6zm-89.1 33.4c13.7 9.9 20.8 15.7 20.5 16.5-.3.8-4 12-8.1 24.9l-7.6 23.5h-51.8l-7.7-23.8c-4.2-13-7.7-24.2-7.8-24.9-.1-1 39.8-31.2 41.2-31.3.2 0 9.8 6.8 21.3 15.1zm-209.7.3 9.7 10.5-3.5 2.6c-4.3 3.3-5 5.2-3.1 8.1 2 3.1 4.1 3 8.7-.1 2-1.4 4.1-2.5 4.5-2.5.5 0 2.9 2.1 5.3 4.6l4.5 4.5-4.4 3.8c-3.8 3.2-4.3 4.1-3.7 6.4 1 4.2 4.8 4.5 10.5.9l4.9-3 2.9 3.2c6.9 7.5 6.8 6.9 1.8 10.4-3.1 2.2-4.5 3.9-4.5 5.5 0 5.5 5 6.2 11.7 1.6l4.5-3.1 4.4 4.8c2.3 2.7 4.3 5.2 4.4 5.5 0 .3-2 1.9-4.5 3.7-3.1 2.2-4.5 3.9-4.5 5.5 0 5.5 5 6.2 11.7 1.6l4.5-3.2 5 5 5 5-5.1 3.6c-5.7 4.1-6.7 7.5-3 10.1 2.5 1.7 3.8 1.3 9.6-2.6 2.3-1.5 4.5-2.8 5-2.8s2.9 2.1 5.3 4.6l4.5 4.6-3 2.1c-6.1 4.5-8.4 7.3-7.8 9.6.3 1.3 1.6 2.7 2.9 3.3 2 .9 3.2.5 8.6-3l6.3-4.1 9.5 10.1c5.2 5.6 10.1 11 10.8 12 1.2 1.7 1.2 1.8-1 1.3-1.2-.2-12-2.1-23.8-4-23.8-3.9-29.3-5.4-35.2-9.2-2.2-1.5-19.1-18.9-37.7-38.7-44.4-47.6-44.7-47.8-47-54.2-1.7-4.5-5.1-26.1-5.1-32.7 0-1.5 1.2-1.7 10.4-1.7h10.4l9.6 10.4zM45.2 236c20.1 20.9 26.1 47.6 17.9 79-2.9 11.1-7.5 21.6-9.2 21.2-4.4-.9-39.2-15.8-39.6-17-.8-1.9 2.1-19.5 5.9-36.2 5.2-23.1 15-54 17.2-54 .6 0 4.1 3.1 7.8 7zM332 277.5c4.3 13.2 8 24.7 8.2 25.6.1.8-2 4.1-4.8 7.1l-5.1 5.6-17.9-1.8c-9.8-1.1-19.7-2.1-21.9-2.4-3.6-.4-4.2-.1-8 3.9l-4 4.4-11-12c-6-6.5-11.2-12.5-11.6-13.2-1-1.7-3.6-15-4.4-22.4l-.7-6.2 10.3 3.4c5.7 1.9 10.9 3.5 11.6 3.5.7 0 8.5-6.5 17.3-14.5l16.1-14.5 9.1 4.7 9 4.8 7.8 24zm130-19c8.8 8 16.6 14.5 17.3 14.5.7 0 5.9-1.6 11.6-3.5l10.3-3.4-.7 6.2c-1 9.2-3.2 19.2-6.2 28.4-2.8 8.7-12.1 27.4-13.9 28-.6.2-3.7-3.3-6.8-7.7-3.2-4.4-6.6-8.4-7.5-8.9-.9-.5-10.6.1-23 1.4l-21.4 2.2-5.2-5.5-5.2-5.6 2.3-7.6c1.3-4.1 5-15.6 8.3-25.5l5.8-18 8.9-4.7c4.9-2.6 9-4.7 9.1-4.8.2 0 7.5 6.5 16.3 14.5zm-53.2 58.1 5 5.6-8.4 18.6c-4.6 10.3-8.4 19.7-8.4 21 0 1.3 2.7 6.1 6 10.6 3.3 4.6 6 8.5 6 8.8 0 .3-4.2 1.4-9.2 2.4-6.6 1.3-13.6 1.9-23.8 1.9-10.2 0-17.2-.6-23.7-1.9-5.1-1-9.3-2.1-9.3-2.4 0-.3 2.7-4.2 6-8.8 3.3-4.5 6-9.3 6-10.6 0-1.3-3.8-10.7-8.4-21.1l-8.4-18.7 5-5.5 5-5.5h55.6l5 5.6zm-196.9 15.5c5.1 5.5 9.1 10.2 8.9 10.4-1 1-68.7 33.5-69.8 33.5-1.3 0-31.1-11.9-32.3-13-.7-.6 80.5-40.8 82.8-40.9.6-.1 5.2 4.4 10.4 10zm99.9-8.2c8.9.9 16.6 2.1 17.1 2.7 1.3 1.3 15.1 32.6 15.1 34.2 0 1.3-8.4 13.7-9.9 14.6-1.2.8-14.8-12-30.6-28.9-19.4-20.7-17.9-18.7-15.4-21.9 2.4-3.1 2.1-3.1 23.7-.7zm156.1 6.3 5.9 8.2-2.9 3.7c-4.9 6.2-16.8 16.7-25.4 22.5-9.6 6.3-25.4 14-26.5 12.7-.4-.4-3.2-4.2-6.2-8.4l-5.6-7.6 7.5-16.9c4.1-9.3 7.9-17.3 8.4-17.9.9-.9 26.4-4.1 35.1-4.4 3.5-.1 4 .3 9.7 8.1zm-274 74.7c99.3 40.8 181.3 74.9 182.3 75.8 4.5 4 .1 13.1-5.9 12.1C367.5 492.3 28.7 353.4 22 350c-4.5-2.3-7.5-5.6-9.5-10.2-1.9-4.6-2-10.2-.2-9.5.6.3 82.4 33.9 181.6 74.6zm50.9-41c6.4 3.3 13 4.7 45.6 10.2 31.8 5.3 31.8 5.3 36 8.8 2.2 1.9 11.8 8.5 21.1 14.6 9.4 6.2 18.8 13.2 21.1 15.7 9.2 9.9 13 20.8 12.1 34.3-.5 7.9-4.2 20.5-6 20.5-.9 0-204.7-83.5-208.5-85.4-2.1-1.1.5-2.6 30-16.8l32.3-15.6 6.3 5.9c3.4 3.2 7.9 6.7 10 7.8zM35.4 367c2.3.8 2.4 1.2 1.4 4-2.1 6.3-9.8 6.2-9.8-.1 0-4.7 1.7-7.1 4-5.9 1 .5 3 1.4 4.4 2zm47.9 20c1.2 1-1.8 6.6-3.9 7.4-2.3.9-6.4-2-6.4-4.4 0-1 .5-3 1.1-4.4 1.1-2.3 1.2-2.4 4.8-.9 2 .8 4 1.8 4.4 2.3zm70.7 28.6c3.4 1.4 4 2 3.4 3.8-.3 1.1-1.5 3-2.5 4.1-1.5 1.5-2.4 1.7-4.6.9-3.1-1.1-4.2-4.9-2.3-8.4 1.3-2.4 1-2.4 6-.4zm46.4 18.9c3.9 1.7 4.2 2.2 2.4 5.9-1.9 4.4-8 4.6-9.3.5-.7-2.1 1.2-7.9 2.5-7.9.4 0 2.4.7 4.4 1.5zm46.9 19.3 3.7 1.7-1.7 3.5c-2.3 4.5-6.4 5.3-8.7 1.7-1.3-1.9-1.4-3-.5-5.5 1.2-3.6 1.9-3.7 7.2-1.4zm45.7 18.8c2.2.9 4 1.9 4 2.3 0 .3-.9 2.1-2 3.9-1.6 2.6-2.6 3.3-4.7 3-3.5-.4-4.7-2.7-3.9-7.1.8-4.2 1.1-4.3 6.6-2.1zm46 19c3.4 1.4 4 2 3.4 3.8-1.1 3.7-4 5.9-6.8 5.2-3.1-.8-4.4-4.6-2.7-8.2 1.3-2.9 1-2.8 6.1-.8z"/><path d="M352.6 52.6c-1.4 1.3-1.6 5.1-1.6 25.8 0 22.3.2 24.4 1.8 25.9 2.4 2.2 4.5 2.1 6.5-.1 1.5-1.6 1.7-4.9 1.7-26 0-20.5-.2-24.3-1.6-25.6-.8-.9-2.4-1.6-3.4-1.6s-2.6.7-3.4 1.6zM312.6 67.6c-.9.8-1.6 2.1-1.6 2.7 0 3 10.4 37.4 11.8 38.9.8 1 2.3 1.8 3.2 1.8 2 0 5-3.1 5-5.1-.1-3.4-10.9-38.2-12.1-39-2.1-1.3-4.6-1.1-6.3.7zM392.8 77.4c-.7.7-3.8 6.3-6.8 12.5-5.7 11.6-5.8 12.9-1.7 15.5 1.2.8 2.2.8 3.5 0 1.9-1.1 13.1-22 13.2-24.6.1-3.9-5.5-6.2-8.2-3.4z"/></svg>